<svg width="24" height="25" viewBox="0 0 24 25" fill="none" xmlns="http://www.w3.org/2000/svg">
<path d="M12 0.5C5.37253 0.5 0 5.87253 0 12.5C0 19.1275 5.37253 24.5 12 24.5C12.3629 24.5 12.7211 24.4811 13.0757 24.4496C13.0757 21.6595 13.0757 18.8696 13.0757 16.0797H10.2331V12.9371C11.1808 12.9371 12.1283 12.9371 13.0757 12.9371C13.0757 11.8896 13.0757 10.8421 13.0757 9.79467C13.0757 7.8888 14.6352 6.3296 16.5408 6.3296H19.7885V8.6016V9.32213H17.6509C16.9653 9.32213 16.4093 9.87813 16.4093 10.5637V12.9373C16.9373 12.9373 17.4653 12.9373 17.9933 12.9373C18.5611 12.9373 19.1285 12.9373 19.6963 12.9373C19.5517 13.9848 19.4072 15.0323 19.2629 16.0797H16.4096V23.66C20.8544 21.9021 24 17.5699 24 12.5C24 5.87253 18.6275 0.5 12 0.5Z" fill="white"/>
</svg>
