<svg width="24" height="25" viewBox="0 0 24 25" fill="none" xmlns="http://www.w3.org/2000/svg">
<path d="M1.27066 7.17897C2.03043 5.63169 3.10391 4.32393 4.45679 3.23652C6.29004 1.7563 8.39288 0.865299 10.7506 0.592249C13.5201 0.271296 16.1229 0.783863 18.5297 2.19222C19.1277 2.54192 19.6865 2.93952 20.2208 3.37065C20.3531 3.47604 20.3384 3.53831 20.2257 3.6437C19.1326 4.70715 18.0395 5.77061 16.9562 6.84365C16.8288 6.9682 16.7602 6.95862 16.6229 6.85802C13.4466 4.46764 8.81443 5.11433 6.44689 8.27596C6.03025 8.83164 5.69203 9.43043 5.45674 10.0819C5.43714 10.1394 5.39792 10.1921 5.36851 10.2496C4.73619 9.78013 4.09896 9.31067 3.47154 8.83643C2.73628 8.28554 2.00102 7.73465 1.27066 7.17897Z" fill="#E94335"/>
<path d="M5.3685 14.7429C5.57928 15.198 5.75574 15.6722 6.02043 16.0986C7.13313 17.8806 8.72129 19.0255 10.8143 19.4327C12.7015 19.8015 14.5151 19.5524 16.2062 18.6279C16.2651 18.5991 16.3239 18.5704 16.3778 18.5417C16.4072 18.5704 16.4317 18.6039 16.4611 18.6279C17.7258 19.586 18.9953 20.544 20.26 21.5021C19.6522 22.0913 18.961 22.5656 18.2258 22.9775C16.0935 24.1655 13.7848 24.6446 11.3535 24.4625C8.32425 24.2326 5.71162 23.0637 3.55486 20.956C2.60882 20.0315 1.82945 18.9872 1.26575 17.7944C1.79023 17.4016 2.31472 17.0135 2.8392 16.6207C3.6823 15.9932 4.5254 15.3705 5.3685 14.7429Z" fill="#34A853"/>
<path d="M20.2649 21.502C19.0003 20.5439 17.7307 19.5858 16.4661 18.6278C16.4367 18.6038 16.4073 18.5703 16.3828 18.5415C16.819 18.211 17.2651 17.8901 17.6229 17.4685C18.2209 16.7691 18.618 15.9787 18.8238 15.0925C18.8483 14.9823 18.8287 14.944 18.716 14.9488C18.6572 14.9536 18.6032 14.9488 18.5444 14.9488C16.5445 14.9488 14.5397 14.944 12.5398 14.9536C12.3192 14.9536 12.2702 14.8961 12.2751 14.6901C12.2849 13.3009 12.2849 11.9117 12.2751 10.5225C12.2751 10.3453 12.3241 10.2974 12.5055 10.2974C16.172 10.3022 19.8385 10.3022 23.5099 10.2974C23.6667 10.2974 23.7305 10.3357 23.7697 10.4986C24.0687 11.8159 24.0491 13.138 23.8677 14.4698C23.7207 15.5332 23.456 16.5631 23.0491 17.5595C22.4462 19.0302 21.559 20.314 20.3924 21.4158C20.3483 21.4493 20.3041 21.4732 20.2649 21.502Z" fill="#4285F3"/>
<path d="M5.36851 14.743C4.52541 15.3705 3.68232 15.9933 2.83922 16.6208C2.31473 17.0088 1.79024 17.4016 1.26576 17.7944C0.858915 17.0567 0.594221 16.2759 0.378545 15.4711C-0.0332014 13.9143 -0.096924 12.3335 0.128556 10.7479C0.305018 9.50236 0.672649 8.30478 1.26576 7.18384C2.00102 7.73473 2.73138 8.29041 3.46664 8.8413C4.09896 9.31554 4.73129 9.78499 5.36361 10.2544C5.25577 10.767 5.10382 11.27 5.0548 11.7969C4.96657 12.755 5.0597 13.6891 5.3391 14.6089C5.35871 14.6472 5.36361 14.6951 5.36851 14.743Z" fill="#FABB06"/>
</svg>
