<svg width="16" height="16" viewBox="0 0 16 16" fill="none" xmlns="http://www.w3.org/2000/svg">
<rect x="4.80835" y="4.11719" width="5.69769" height="10.2786" fill="white"/>
<path d="M15.6802 12.0338L10.0747 1.3266C9.1591 -0.4422 6.84379 -0.4422 5.9315 1.3266L0.322735 12.0338C-0.592847 13.8026 0.546691 16 2.39432 16H13.5888C15.4364 16 16.5957 13.7808 15.6802 12.0338ZM7.9998 13.6247C7.51236 13.6247 7.10727 13.1779 7.10727 12.6404C7.10727 12.1028 7.51236 11.6561 7.9998 11.6561C8.48723 11.6561 8.89233 12.1028 8.87256 12.6658C8.89562 13.1779 8.46747 13.6247 7.9998 13.6247ZM8.81328 7.26134C8.77376 8.02406 8.73095 8.78316 8.69142 9.54588C8.67166 9.79286 8.67166 10.018 8.67166 10.2614C8.6519 10.6645 8.36537 10.9769 7.9998 10.9769C7.63422 10.9769 7.35098 10.6863 7.32793 10.2832C7.26865 9.09551 7.20607 7.92963 7.14679 6.74196C7.12703 6.4296 7.10727 6.11361 7.08421 5.80126C7.08421 5.28551 7.34769 4.86056 7.77584 4.72618C8.20399 4.61359 8.62885 4.83877 8.81328 5.28551C8.87586 5.44169 8.89562 5.59787 8.89562 5.77947C8.87586 6.27706 8.83304 6.77101 8.81328 7.26134Z" fill="#F20909"/>
</svg>
